<svg width="27" height="32" viewBox="0 0 27 32" fill="none" xmlns="http://www.w3.org/2000/svg">
<path d="M0 0H2.2503L2.02527 12.8385L0 14.8827V0Z" fill="#E50914"/>
<path d="M0.101562 0.972168C0.101562 0.972168 7.75156 0.97217 17.4415 0.972168C27.1315 0.972166 28.3215 20.3043 17.4415 20.3043C6.56156 20.3043 12.9649 20.3043 12.9649 20.3043" stroke="#E50914" stroke-width="1.94344"/>
<path d="M0.0517578 30.1744L13 19.5V21.5L0.0517578 31.9644L0.0517578 30.1744Z" fill="#E50914"/>
<path d="M0 17.0309L2.04573 16.8774V25.6741L0 27.6687V17.0309Z" fill="#E50914"/>
<path d="M12.6324 4.85889H14.5247L2.04573 16.9798L0 17.031L12.6324 4.85889Z" fill="#E50914"/>
<path d="M2.04492 19.5368L16.5696 5.37012L17.797 5.98384L2.04492 21.4291V19.5368Z" fill="#E50914"/>
<path d="M2.04492 23.8331L19.0756 7.2627L19.7405 8.3367L2.04492 25.6742V23.8331Z" fill="#E50914"/>
</svg>
