<svg width="27" height="27" viewBox="0 0 27 27" fill="none" xmlns="http://www.w3.org/2000/svg">
<path d="M17.2247 5.13537C16.4328 4.32919 15.4889 3.68782 14.4476 3.24829C13.4062 2.80876 12.288 2.57979 11.1577 2.5746C10.0273 2.56941 8.90705 2.7881 7.86171 3.21804C6.81636 3.64799 5.8666 4.28067 5.06729 5.07953C4.26798 5.8784 3.63495 6.82763 3.20476 7.87239C2.77458 8.91715 2.55576 10.0367 2.56096 11.1665C2.56615 12.2963 2.79525 13.4138 3.23502 14.4546C3.6748 15.4953 4.31653 16.4387 5.12315 17.2302C6.73295 18.8098 8.90172 19.6902 11.1577 19.6798C13.4136 19.6694 15.5742 18.7692 17.1694 17.1749C18.7646 15.5806 19.6653 13.4212 19.6757 11.1665C19.6861 8.91182 18.8052 6.74426 17.2247 5.13537ZM3.26157 3.27483C5.27958 1.25844 7.99208 0.0887168 10.8444 0.00484255C13.6967 -0.0790317 16.4733 0.929285 18.6064 2.8236C20.7396 4.71791 22.0681 7.35511 22.3203 10.1959C22.5724 13.0367 21.7292 15.8664 19.9631 18.1065L27 25.1395L25.1384 27L18.1015 19.9671C15.8595 21.7257 13.0306 22.5632 10.1919 22.3086C7.35319 22.0541 4.71859 20.7268 2.82551 18.5974C0.932426 16.4681 -0.0765038 13.6971 0.00452888 10.8497C0.0855616 8.0024 1.25045 5.29321 3.26157 3.27483Z" fill="#F3F3F3"/>
</svg>
